<?xml version="1.0" encoding="utf-8"?>
<!-- Generator: Adobe Illustrator 19.0.0, SVG Export Plug-In . SVG Version: 6.00 Build 0)  -->
<svg version="1.1" id="Layer_1" xmlns="http://www.w3.org/2000/svg" xmlns:xlink="http://www.w3.org/1999/xlink" x="0px" y="0px"
	 viewBox="0 0 225.2 73.6" preserveAspectRatio="xMidYMid meet" style="enable-background:new 0 0 225.2 73.6;" xml:space="preserve">
<style type="text/css">
	.st0{fill:#FFFFFF;}
	.st1{fill:#03AEED;}
	.st2{fill:none;}
</style>
<path class="st0" d="M11.6,41.1c-0.8-2.6-3-3.8-6.7-3.7v11.8l0,11.1H0V32.7h5.6c3.4,0,6,0.7,7.9,2.2c2.2,1.9,3.3,4.6,3.4,8.1
	c-0.1,2.6-0.9,4.7-2.5,6.3L12.6,51l6.6,9.3h-5.9L5.6,49.2c3-0.4,4.9-1.7,5.8-4C12,43.8,12.1,42.4,11.6,41.1"/>
<polygon class="st0" points="35.4,60.3 22.2,60.3 22.2,32.7 35.4,32.6 35.5,37.6 27.2,37.6 27.2,43.2 34.9,43.2 34.9,48 27.2,48 
	27.2,55.2 35.5,55.2 "/>
<path class="st0" d="M60.5,58.7c-2.7,1.5-5.3,2.2-7.9,2.2c-4.1,0-7.7-1.4-10.6-4.3c-3-2.9-4.5-6.4-4.5-10.5c0-3.9,1.6-7.3,4.7-10
	c3-2.7,6.5-4,10.5-4c1.6,0,2.9,0.1,4,0.4c1,0.2,2.3,0.7,3.8,1.5l-2.8,3.3c-0.9-0.5-2.7-0.8-5.3-0.8c-2.6,0-4.9,1-7,2.9
	c-2,1.9-3,4.2-3,6.8c0,2.8,1,5.2,2.9,7.3c1.9,2,4.3,3,7.1,3c2.4,0,4.1-0.5,5.3-1.5L60.5,58.7z"/>
<polygon class="st0" points="128.2,60.4 123.3,60.4 123.1,45.5 114.6,54.5 106.1,45.5 106.1,60.4 100.9,60.4 100.9,31.6 114.5,47 
	128.2,31.7 "/>
<polygon class="st0" points="159.1,60.4 154.2,60.4 154.1,45.5 145.5,54.5 137,45.5 137,60.4 131.8,60.4 131.8,31.6 145.4,47 
	159.1,31.7 "/>
<polygon class="st0" points="175.5,60.3 162.4,60.3 162.4,32.7 175.5,32.6 175.7,37.6 167.3,37.6 167.3,43.2 175.1,43.2 175.1,48 
	167.3,48 167.3,55.2 175.7,55.2 "/>
<polygon class="st0" points="199.8,60.7 183.8,44.7 183.8,60.6 178.4,60.6 178.4,31.7 194.2,47.6 194.2,32.3 199.8,32.3 "/>
<path class="st0" d="M225.2,46.1c0,4.5-1.5,8-4.6,10.6c-2.9,2.4-6.6,3.5-11.2,3.5h-6.8V32.7h6.4c4.5,0,8.2,1.1,11.2,3.3
	C223.6,38.4,225.2,41.8,225.2,46.1 M220.3,46.4c0-6.2-4.2-9.3-12.7-9.3v18.8h1.3c3.3,0,5.9-0.7,8-2.2
	C219.2,52,220.3,49.6,220.3,46.4"/>
<path class="st1" d="M103.4,14.4c-4,0-7.3,3.3-7.3,7.3c0,0.9,0.2,1.7,0.5,2.5l-10.4,9.4c-2.5-1.8-5.5-2.9-8.8-2.9
	c-1.5,0-2.9,0.2-4.2,0.6L65.1,17c1.8-1.8,2.9-4.3,2.9-7c0-5.5-4.5-10-10-10S48,4.5,48,10c0,5.5,4.5,10,10,10c0.6,0,1.1-0.1,1.7-0.1
	l8.2,14.4c-3.2,2.7-5.3,6.8-5.3,11.3c0,8.2,6.6,14.8,14.8,14.8s14.8-6.6,14.8-14.8c0-2.8-0.8-5.4-2.1-7.6l10.9-9.4
	c0.8,0.3,1.6,0.4,2.4,0.4c4,0,7.3-3.3,7.3-7.3S107.4,14.4,103.4,14.4 M77.3,56c-5.8,0-10.5-4.7-10.5-10.5s4.7-10.5,10.5-10.5
	c5.8,0,10.5,4.7,10.5,10.5S83.1,56,77.3,56"/>
<path class="st0" d="M81.9,49.4c0.5,0.3,0.7,0.7,0.6,1.1c-0.1,0.5-0.5,0.7-1,0.8c-2.4,0.3-4.7,0.1-6.9-1c-0.5-0.3-0.7-0.6-0.7-1.2
	c0-1.5,0-3,0-4.5c0-0.3,0.1-0.5,0.3-0.7c1.1-0.8,2-1.7,2.7-2.9c0.4-0.7,0.7-1.5,0.5-2.4c0-0.2,0.1-0.7,0.3-0.8
	c0.2-0.1,0.7-0.1,0.9,0.1c0.5,0.3,0.7,1,0.7,1.6c0,0.8-0.2,1.7-0.3,2.5C79,42.8,79,42.9,79.7,43c0.7,0.1,1.5,0.1,2.2,0.1
	c0.3,0,0.7,0.2,1,0.3c0.6,0.5,0.6,1.2-0.1,1.6c-0.1,0-0.1,0.1-0.2,0.1c0.9,0.3,1.3,0.7,1.2,1.2c-0.1,0.7-0.6,0.8-1.3,0.9
	c0.6,0.3,1.1,0.7,0.9,1.4C83.1,49.4,82.5,49.4,81.9,49.4"/>
<rect x="70.9" y="43.9" class="st0" width="2.3" height="6.5"/>
<path class="st1" d="M42.3,73.6h-1.7L39,72.2l-0.9,0.9c-0.2,0.2-0.4,0.3-0.7,0.4c-0.2,0.1-0.4,0.1-0.8,0.1H34
	c-0.9,0-1.4-0.2-1.7-0.6c-0.2-0.3-0.2-0.9-0.2-1.8c0-0.4,0.1-0.7,0.2-0.9c0.1-0.2,0.4-0.4,0.7-0.6l1.6-1c-0.3-0.3-0.5-0.5-0.6-0.8
	c-0.1-0.2-0.1-0.5-0.1-0.9c0-0.6,0.2-1,0.5-1.2c0.3-0.2,0.7-0.3,1.4-0.3h1.5c0.8,0,1.3,0.1,1.6,0.4c0.2,0.3,0.3,0.8,0.3,1.6
	l-1.1,0.2v-1.3h-3.1v1.2l3.9,3.2l1.9-1.8l0.7,0.7l-1.8,1.7L42.3,73.6z M38.2,71.5l-2.9-2.3l-2.1,1.5v1.8h3.9L38.2,71.5z"/>
<path class="st1" d="M81.7,72c0,0.6-0.1,1-0.3,1.3c-0.2,0.2-0.7,0.3-1.3,0.3h-4.1c-0.7,0-1.1-0.1-1.3-0.4c-0.2-0.2-0.3-0.7-0.3-1.4
	l1.1-0.2v1h5v-1.9h-4.3c-0.8,0-1.3-0.2-1.4-0.6c-0.1-0.2-0.2-0.8-0.2-1.7c0-0.6,0.1-1,0.3-1.3c0.2-0.2,0.7-0.3,1.3-0.3H80
	c0.6,0,1.1,0.1,1.3,0.3c0.2,0.2,0.3,0.7,0.3,1.3l-1.1,0.3v-0.9h-4.7v1.7h4.3c0.6,0,1,0.1,1.3,0.3c0.2,0.2,0.3,0.6,0.3,1.3V72z"/>
<polygon class="st1" points="110.1,73.6 108.9,73.6 108.9,70.6 103.6,70.6 103.6,73.6 102.3,73.6 102.3,66.9 103.6,66.9 103.6,69.6 
	108.9,69.6 108.9,66.9 110.1,66.9 "/>
<path class="st1" d="M138.7,73.6h-1.4l-0.9-1.6h-4.6l-0.9,1.6h-1.3l3.9-6.7h1.1L138.7,73.6z M136,71l-1.8-3.2l-1.8,3.2H136z"/>
<path class="st1" d="M165.8,73.6h-1.7l-2.7-2.6h-1.8v2.6h-1.3v-6.7h5.4c0.9,0,1.4,0.4,1.4,1.3v1.5c0,0.6-0.2,1-0.7,1.2
	c-0.2,0.1-0.7,0.1-1.6,0.1L165.8,73.6z M163.9,69.3v-0.8c0-0.5-0.2-0.7-0.7-0.7h-3.6V70h3.6c0.3,0,0.5,0,0.6-0.1
	C163.8,69.8,163.9,69.6,163.9,69.3"/>
<polygon class="st1" points="193.2,73.6 186.4,73.6 186.4,66.9 193.1,66.9 193.1,67.9 187.6,67.9 187.6,69.6 190.9,69.6 190.9,70.6 
	187.6,70.6 187.6,72.6 193.2,72.6 "/>
<rect y="0" class="st2" width="225.2" height="73.6"/>
</svg>
