<?xml version="1.0" encoding="utf-8"?>
<!-- Generator: Adobe Illustrator 19.0.0, SVG Export Plug-In . SVG Version: 6.00 Build 0)  -->
<svg version="1.1" id="Layer_1" xmlns="http://www.w3.org/2000/svg" xmlns:xlink="http://www.w3.org/1999/xlink" x="0px" y="0px"
	 width="2594.9px" height="2418.1px" viewBox="0 0 2594.9 2418.1" style="enable-background:new 0 0 2594.9 2418.1;"
	 xml:space="preserve">
<style type="text/css">
	.st0{clip-path:url(#SVGID_2_);fill:#75B2B5;}
	.st1{clip-path:url(#SVGID_2_);fill:#B3E6EA;}
	.st2{clip-path:url(#SVGID_2_);fill:#FF8D6C;}
	.st3{clip-path:url(#SVGID_2_);fill:#312F74;}
	.st4{clip-path:url(#SVGID_2_);fill:#4A448E;}
	.st5{clip-path:url(#SVGID_2_);fill:#FFCD00;}
	.st6{clip-path:url(#SVGID_2_);fill:#E6795B;}
	.st7{clip-path:url(#SVGID_2_);fill:#001A3B;}
	.st8{clip-path:url(#SVGID_2_);fill:#1B1464;}
	.st9{clip-path:url(#SVGID_2_);fill:#FFFFFF;}
	.st10{clip-path:url(#SVGID_2_);fill:#EFBF00;}
</style>
<g>
	<defs>
		<rect id="SVGID_1_" y="0" width="2594.9" height="2418.1"/>
	</defs>
	<clipPath id="SVGID_2_">
		<use xlink:href="#SVGID_1_"  style="overflow:visible;"/>
	</clipPath>
	<path class="st0" d="M2594.9,2324.3c0,51.8-580.7,93.8-1297,93.8S1,2376.1,1,2324.3c0-51.8,580.7-93.8,1297-93.8
		S2594.9,2272.5,2594.9,2324.3"/>
	<path class="st0" d="M2591.4,1403.9c-11.1-61.5-48.5-116.2-103.1-151.6c1.4-1.2,2.9-2.4,4.3-3.6c49-41.9,76.6-99.5,77.6-162.1
		c1-62-25.5-122.3-72.8-165.5c-46.6-42.6-104.8-64.2-172.8-64.2h-0.3c-177.5,0.2-501.8,0.1-638.8,0.1
		c10.9-74.4,28.9-193.4,41.8-264.5l0.2-1.1c21.9-134.8-18.6-265.1-56.5-350.6c-42.3-95.6-100.9-178.6-145.8-206.4
		C1494,15.2,1461.3,3.9,1428,0.9c-33.3-3.1-67.5,2.1-101.5,15.5c-37.7,14.7-89.6,75.5-86.2,116.1c6.5,78,45,128.4,51,205.4
		c2.2,27.6,4.3,55.3,6.5,82.9c3.5,44.8-4.3,84.1-24,120.1c-28.2,51.5-56.7,103-84.3,152.9c-67.3,121.9-137,248-203.3,373.4
		c-5.9,11.2-11.9,21.8-17.9,31.8v-55.7c0-118.5-96.4-214.9-214.9-214.9H404c-118.5,0-214.9,96.4-214.9,214.9V2099
		c0,118.5,96.4,214.9,214.9,214.9l291.5,10.5c69.6,0,189.5-43.7,228.8-95.2c72.6,56,158.1,84.5,254.3,84.6
		c30.2,0,69.1,0.1,113.8,0.1c8.2,0,755.7,10.6,778.2,7.6c113.8-15.5,263.5-132.5,254.6-247.4c-2.2-29.2-11-55-20.8-77.1
		c75.9-16.1,136.7-66.4,164.8-137.6c27.5-69.4,18.3-145.5-23.9-207.5c39.5-13.9,72.9-37.4,99.4-70
		C2586.3,1530.6,2602.9,1467.4,2591.4,1403.9"/>
	<path class="st1" d="M2502.9,1448.1c-10.3-56.9-46.5-107.2-99.2-138.1c-8.8-5.1-17.5-10.1-26.4-15.1c12.2-9.2,24.5-18.8,36.3-28.9
		c42.7-36.6,66.7-86.6,67.6-140.9c0.9-53.8-22.3-106.3-63.5-143.9c-41.2-37.6-92.8-56.7-153.6-56.7h-0.2
		c-179.7,0.2-511,0.1-671.8,0.1c9.8-68.2,31.8-216,46.7-298.1l0.1-0.6c20.8-127.9-18.1-252.5-54.4-334.5
		c-39.6-89.4-95-169-134.7-193.7c-54.9-34-113.1-39.4-173.1-15.9c-25.8,10.1-38.2,30.2-35.9,58.2c6.6,78.1,12.8,157.6,18.8,234.5
		c2.2,27.6,4.3,55.3,6.5,82.9c4,50.6-5,95.1-27.5,136c-28,51-56.6,102.9-84.3,153c-67.3,121.8-136.9,247.8-203.1,373
		c-23,43.5-46.2,78-71.7,105.9v-143.1c0-102.5-83.8-186.3-186.3-186.3H343.6c-102.5,0-186.3,83.8-186.3,186.3V2138
		c0,102.5,83.8,186.3,186.3,186.3h349.5c70,0,131.2-39.1,163.1-96.5c6.9,4.2,13.5,8.6,19.5,13.4c68.7,55,150.3,82.9,242.6,83.1
		c30.2,0,69.1,0.1,113.8,0.1c289.5,0,823.8-0.9,838.6-2.9c99.1-13.5,173.5-106,165.7-206.2c-3-39.5-19.9-72.4-35.3-101.4
		c6.4-1,12.6-2,18.7-2.8c75-9.5,135.7-55.6,162.4-123.3c26.3-66.5,14-140.1-33-196.9c-4-4.9-8-9.9-12-15c10.4-3.2,20.6-6.4,30.8-9.6
		c37.6-11.8,69.3-33.1,94-63.5C2498.4,1558.2,2512.9,1503.2,2502.9,1448.1"/>
	<path class="st2" d="M1784.5,354.7l29.6,75.3l35.3-63.8c0,0-4.1-9.1-6.2-22.5c-0.8-5.2-1.2-11-0.5-17.2c2.2-22.2-45-19.8-45-19.8
		c0,1.8-2.3,11.2-4.8,21.2C1789.5,340.8,1784.5,354.7,1784.5,354.7"/>
	<path class="st2" d="M2236.7,1205.3c1.2,0,2.3-0.2,3.5-0.5c6.2-1.9,9.6-8.5,7.7-14.7l-18.6-59.6c-1.9-6.2-8.5-9.6-14.7-7.7
		c-6.2,1.9-9.6,8.5-7.7,14.7l18.6,59.6C2227.1,1202.1,2231.7,1205.3,2236.7,1205.3"/>
	<path class="st2" d="M2064.8,1313.1c0.1,0,0.2,0,0.3,0c6.5-0.2,11.6-5.5,11.4-12l-1.5-62.4c-0.2-6.5-5.5-11.7-12-11.4
		c-6.5,0.2-11.6,5.5-11.4,12l1.5,62.4C2053.2,1308.1,2058.4,1313.1,2064.8,1313.1"/>
	<path class="st3" d="M2086.1,895l-9.6,370.9h-25c0,0-54.3-342.1-54.3-365.5c0-23.5-184.7-1.8-184.7-1.8s101.6-134.1,224.8-120.4
		C2160.5,791.9,2086.1,895,2086.1,895"/>
	<path class="st4" d="M1903.9,704.2c8.5,1.1,17,0.9,25.5-0.2c41.2-5.5,162.4-19.9,189.1-3c32.3,20.5,121.2,458.4,121.2,458.4
		l-25,6.6c0,0-148.9-295.9-155.8-348.7c-6.8-52.8-167.1,80.1-278.5,86c-111.4,5.9-96.3-86-96.3-86S1743.2,684,1903.9,704.2"/>
	<path class="st5" d="M1849.4,366.2c0,0-33.7,64-64.8-11.4c0,0-143,6.4-129.1,130.1l66.9,9.2L1684,817.3c0,0,57.6-102.5,232.2-112.4
		l-3.9-199.1l47.8-53.4C1960.1,452.5,1928.9,368.5,1849.4,366.2"/>
	<path class="st2" d="M1724.5,450.1L1696,672.6l-43.7-11.2l128-193.3c2.9-6.2,10.4-8.9,16.6-5.9c5.9,2.8,8.6,9.6,6.3,15.6
		l-108.9,201.4c-4.4,11.7-17.4,17.7-29.2,13.3c-9.6-3.6-15.4-13.1-14.7-22.8l0.1-1.6l17.9-223.6c9.9-16.9,13.2-28.2,29.2-27.1
		c16,1.2,28.1,15.1,26.9,31.1C1724.6,449,1724.6,449.6,1724.5,450.1"/>
	<path class="st2" d="M1897.5,443.8l60.6,202.4l38.9-17.1l-130.6-188.5c-3.7-5.3-11-6.7-16.3-3c-5,3.5-6.5,10.3-3.5,15.5
		l114.1,198.9c5.9,10.2,18.9,13.8,29.1,7.9c8.4-4.8,12.3-14.5,10.2-23.5l-0.4-1.5l-51-205c-11.8-14.2-16.6-24.2-31.3-20.7
		c-14.7,3.5-23.8,18.3-20.2,33C1897.3,442.8,1897.4,443.3,1897.5,443.8"/>
	<path class="st6" d="M1792.8,327.9c9.1,11.8,20.8,19.5,33.5,20.8c5.9,0.6,11.5-1.3,16.8-5c-0.8-5.2-1.2-11-0.5-17.2
		c2.2-22.2-45-19.8-45-19.8C1797.6,308.4,1795.3,317.8,1792.8,327.9"/>
	<path class="st2" d="M1776.8,247.1c-4.9,48.3,20.5,90.5,52,93.7c31.5,3.2,56.8-64.3,61.7-112.6c4.9-48.3-6.1-47.7-37.6-50.9
		C1821.4,174.1,1781.8,198.8,1776.8,247.1"/>
	<path class="st5" d="M1970.6,486.3l-58.3,19.6l-4.9-24.2l-38.1-88.1l-19.9-27.3C1849.4,366.2,1947.4,364.7,1970.6,486.3"/>
	<path class="st5" d="M1652.1,512.7l68.2-1.6l2-17.1l12.1-96.7l-10.8-19.4C1723.6,377.8,1637.4,387.7,1652.1,512.7"/>
	<path class="st7" d="M1824.5,469.5h28.6c3.7,0,6.9-2.4,7.9-6l21.2-75.2c1.5-5.2-2.5-10.4-7.9-10.4h-28.4c-3.7,0-6.9,2.4-7.9,6
		l-21.3,75.2C1815.1,464.3,1819,469.5,1824.5,469.5"/>
	<path class="st2" d="M1818.6,422.4c-5.4,6.8,8.2,26,25.6,38.9c18.7,13.9,38.1,28.7,43.4,21.8c5.4-6.8-14.7-37.2-28.5-48.9
		C1842.6,420.3,1824,415.6,1818.6,422.4"/>
	<path class="st2" d="M1843.6,427.8c5.4,6.8-8.2,26-25.6,38.9c-18.7,13.9-38.1,28.7-43.4,21.8c-5.4-6.8,14.7-37.2,28.5-48.9
		C1819.6,425.7,1838.2,420.9,1843.6,427.8"/>
	<path class="st2" d="M1865.9,437.8c-1.4,7.8-0.6,14.6,1.9,15c2.5,0.4,5.6-5.6,7-13.4c1.4-7.8,0.6-14.6-1.9-15
		C1870.5,423.9,1867.4,429.9,1865.9,437.8"/>
	<path class="st3" d="M2084.1,929.5c0,0,21-156-46.6-140c-82.1,19.4-157.6,90.2-204.7,103.7c-47.1,13.5,169.5-46.8,169.5-46.8
		L2084.1,929.5z"/>
	<path class="st7" d="M2076,1279.5h-23.5c0,0-28.8,35.3-1.6,35.3h90.8C2141.7,1314.8,2175.8,1306.5,2076,1279.5"/>
	<path class="st7" d="M2246,1184h-24.6c0,0-28,35.3-0.8,35.3h90.8C2311.4,1219.3,2345.8,1211,2246,1184"/>
	<path class="st8" d="M1774,276.8c-2.8-18.6-21.1-73.7,2.3-101.2c23.3-27.4,35.7,29.1,74.7-19.2c29.7-36.8,103,66.7,48.5,89.4
		c-65.3,27.1-77.8-48.5-99.8,1.2C1777.6,296.6,1774,276.8,1774,276.8"/>
	<path class="st2" d="M1334.7,1037.4l-75.3,66.2l-64.1-64.3c0,0,41.9-61,34.7-76.8c-8-17.7,73.2-11.4,73.2-11.4
		c-0.3,2.2,16.1-2.4,7.4,12.1C1299.9,980.9,1334.7,1037.4,1334.7,1037.4"/>
	<path class="st6" d="M1308.8,976.6c-13.7,13.3-26.2,24.2-46.1,22.7c-14.1-1.1-27.3-18.4-33.3-24.1c2-6.4,2.2-8.9-1.1-24.4
		c-5.9-27.9,83.4,8.9,83.4,8.9C1309.7,965.7,1307.5,967,1308.8,976.6"/>
	<path class="st2" d="M1333,874.3c2.7,61.9-25.4,112.9-65.8,114.6c-40.3,1.7-67.4-86.1-70.1-148c-2.7-61.9,25.1-74.7,65.4-76.4
		C1302.9,762.8,1330.3,812.4,1333,874.3"/>
	<path class="st3" d="M1142.7,1475.9c-34.8,64.6-19.6,842.1-19.6,842.1h64.3l84.6-651.3l89.3,651.3h63.8c0,0,7.2-770.7-37.2-841.9
		C1353.5,1421.1,1173.5,1418.8,1142.7,1475.9"/>
	<path class="st9" d="M1214.8,1012.4c42.2,17.3,67.2,23.9,119.9,0c65-29.5,137.4,121.3,165.4,315.1l-64.9-9.6l-57.8-124.4
		c-2.8-5.9-11.6-4.7-12.6,1.8l39.4,318.1h-274.8l42.5-322.2c-0.9-5.5-8.4-6.7-10.9-1.7l-60.7,120l-64.8-2
		C1035.6,1307.4,1073.9,954.6,1214.8,1012.4"/>
	<path class="st2" d="M1049.5,1290.5l185-72.7c8.9-4.2,21.7,14.8,13.7,19.4l-175.4,98.7c-12.3,6.9-27.8,2.6-34.8-9.7
		s-2.6-27.8,9.7-34.8C1048.3,1291.1,1048.9,1290.8,1049.5,1290.5"/>
	<path class="st2" d="M1461.1,1350.6l-190-118.8c-8.4-5.2,1.7-26.7,9.9-22.3l205.6,97c12.4,6.6,17.1,22.1,10.5,34.5
		c-6.6,12.4-22.1,17.1-34.5,10.5C1462.1,1351.2,1461.6,1350.9,1461.1,1350.6"/>
	<path class="st7" d="M1123.2,2318c0,0-106.8,27.4-103.6,48.6h169.9l-2-48.6H1123.2z"/>
	<path class="st7" d="M1425,2318c0,0,106.8,27.4,103.6,48.6h-169.9l2-48.6H1425z"/>
	<path class="st7" d="M1280.8,1246.8h-37.6c-4.2,0-7.8-2.9-8.8-6.9l-21.7-89.5c-1.4-5.7,2.9-11.2,8.8-11.2h38.4c4.2,0,7.9,2.9,8.8,7
		l20.9,89.5C1291,1241.3,1286.7,1246.8,1280.8,1246.8"/>
	<path class="st2" d="M1295.2,1230.8c22.6,33.7-29.3-0.3-48.1-2.3c-17.9-1.9-34.4-15.9-32-24.9c2.3-8.9,15.3-19.4,44.2-5.8
		C1279.8,1207.6,1290,1223.1,1295.2,1230.8"/>
	<path class="st2" d="M1186.5,1250.7c-22.6,33.7,29.3-0.3,48.1-2.3c17.9-1.9,34.4-15.9,32-24.9c-2.3-8.9-16.3-21.4-44.2-5.8
		C1190.2,1235.9,1191.7,1243,1186.5,1250.7"/>
	<path class="st2" d="M1287.5,1206.8c2.5,9.1,2.3,17.1-0.4,17.8c-2.7,0.8-7-6-9.5-15.1c-2.5-9.1-2.3-17.1,0.4-17.8
		C1280.7,1190.9,1285,1197.7,1287.5,1206.8"/>
	<path class="st8" d="M1197.4,889.6c0,0-37-105,7-115s41-13.5,74-27s56.3,13,59.7,49c1.9,20.4,10.5,41.2,0.4,75.2
		c-11.9,39.6-6.8-29.7-40.5-39.3c-43.9-12.5-28,26.8-68.4,6C1196.2,821.4,1220.9,922.1,1197.4,889.6"/>
	<path class="st8" d="M551.8,305.7c0,0,13.2,53.3,127.6,143.5c114.4,90.2,20.9,196.8,33,266.1c12.1,69.3,61.6,61.6,61.6,61.6
		s-58.3,45.1-129.7-45.1C572.7,641.6,517,316.1,517,316.1L551.8,305.7z"/>
	<path class="st10" d="M404.1,730.2c-2.2,0.2-289.3,8.8-298,96.1c-9.3,92.6-14.9,356.1-14.9,356.1h41.2l68.4-358.6l327.5,15.5
		L404.1,730.2z"/>
	<path class="st5" d="M659.2,724.5c0,0,60.8,207.8-349.7,134.3c-24.8-4.4-46.4,17.6-43.4,42.6l40.4,333.3h-41.2
		c0,0-112.5-297.1-92.5-427.8c4.1-26.7,24.1-48.3,50.3-54.9C272.6,739.5,388.9,723.7,659.2,724.5"/>
	<path class="st2" d="M469.1,395c0,0,4.4-15.9,1.6-31.5c-1.4-7.8-4.6-15.4-11-21c-19.4-16.9,56.7-51.6,57.6-33.2
		c0.2,4.4,0.6,8.5,1.2,12.3c6.3,44.7,33.2,54.2,40.6,72.2L469.1,395z"/>
	<path class="st2" d="M414.5,708.4c0,5.4-24.7,11.7-50.1,11.7c-25.5,0-45.1,8.9-45.1,3.5c0-5.4,10.2-28.3,35.6-28.3
		C380.3,695.3,414.5,703,414.5,708.4"/>
	<polygon class="st0" points="180.9,758.9 479.7,758.9 336.5,727.3 	"/>
	<path class="st2" d="M441.8,735.4c0,5.4-24.7,11.7-50.1,11.7c-25.5,0-45.1,8.9-45.1,3.5c0-5.4,10.2-28.3,35.6-28.3
		C407.6,722.3,441.8,730,441.8,735.4"/>
	<polygon class="st1" points="280,606 81.7,606 180.9,758.9 386,758.9 	"/>
	<path class="st3" d="M513.6,439l31.7,223.9l22.9-34.6l-184,64.1c-7.9,1.6,0.9,28.1,8,27.6l183.5-37c14.3-1,25.1-13.4,24.2-27.7
		c-0.1-1.4-0.3-2.7-0.6-4l-0.7-2.9l-48.2-214.5C545.9,414.4,513.4,438.2,513.6,439"/>
	<path class="st4" d="M531.5,346.8c-16-1.7-15.3,47.2-59.9,28.8c0,0-79.9,122.1-38.9,163.2c67.4,67.6,57.1,187.7,57.1,187.7l169.4-2
		C659.2,724.5,616.7,355.7,531.5,346.8"/>
	<path class="st3" d="M507.4,451.9l72.4,233.2l22.9-34.6L411,719.1c-7.9,1.6,2.9,28.2,10.1,27.7l189.2-41.6
		c14.3-1,25.1-13.4,24.2-27.7c-0.1-1.4-0.3-2.7-0.6-4l-0.7-2.9l-55.5-237.8c-4.6-19.6-24.1-31.7-43.7-27.1
		c-19.6,4.6-31.7,24.1-27.1,43.7C506.9,450.2,507.2,451.1,507.4,451.9"/>
	<path class="st6" d="M517,319.8c-6.6,23.2-21.6,45.2-45.9,46.9c-1.4-7.8-5.1-18.7-11.5-24.3c-19.4-16.9,56.7-51.6,57.6-33.2
		C517.4,313.6,516.5,316,517,319.8"/>
	<path class="st2" d="M522.8,248.1c5.3,51.5-14.4,107.4-51.4,109.5c-29.2,1.6-73.3-65.7-70-117.4c4.9-76.1,37-77.3,67.9-73.5
		C502.9,170.8,517.6,196.6,522.8,248.1"/>
	<path class="st8" d="M403.4,230.5c0,0,53.4,113.4,146.2,89.1c0,0,35.4-173.7-94.2-158.4c-28.5,3.4-54.6,19.3-68.3,44.5
		c-12.5,23-14.5,55,21.6,90.6L403.4,230.5z"/>
	<path class="st7" d="M265.3,1234.7h41.2c0,0,36.5,47.4,0,47.4h-122C184.5,1282.1,131.2,1270.9,265.3,1234.7"/>
	<path class="st7" d="M91.2,1182.4h41.2c0,0,36.5,47.4,0,47.4h-122C10.5,1229.8-42.9,1218.6,91.2,1182.4"/>
</g>
</svg>
