<?xml version="1.0" encoding="utf-8"?>
<!-- Generator: Adobe Illustrator 19.0.0, SVG Export Plug-In . SVG Version: 6.00 Build 0)  -->
<svg version="1.1" id="Layer_1" xmlns="http://www.w3.org/2000/svg" xmlns:xlink="http://www.w3.org/1999/xlink" x="0px" y="0px"
	 width="2559.1px" height="1576px" viewBox="0 0 2559.1 1576" style="enable-background:new 0 0 2559.1 1576;" xml:space="preserve"
	>
<style type="text/css">
	.st0{clip-path:url(#SVGID_2_);fill:#F19F68;}
	.st1{clip-path:url(#SVGID_2_);fill:#FFD147;}
	.st2{clip-path:url(#SVGID_2_);fill:#6A3B3B;}
	.st3{clip-path:url(#SVGID_2_);fill:#FFB685;}
	.st4{clip-path:url(#SVGID_2_);fill:#128C8B;}
	.st5{clip-path:url(#SVGID_2_);fill:#62C1C5;}
	.st6{clip-path:url(#SVGID_2_);fill:#D1C267;}
	.st7{clip-path:url(#SVGID_2_);fill:#F8AE23;}
	.st8{clip-path:url(#SVGID_2_);fill:#198A8E;}
	.st9{clip-path:url(#SVGID_2_);fill:#1B1D29;}
	.st10{clip-path:url(#SVGID_2_);fill:#FFC19A;}
	.st11{clip-path:url(#SVGID_2_);fill:#222B54;}
	.st12{clip-path:url(#SVGID_2_);fill:#FFFFFF;}
	.st13{clip-path:url(#SVGID_2_);fill:#D1EAEE;}
	.st14{clip-path:url(#SVGID_2_);fill:#FDB675;}
	.st15{clip-path:url(#SVGID_2_);fill:#61C1C5;}
</style>
<g>
	<defs>
		<rect id="SVGID_1_" width="2559.1" height="1576"/>
	</defs>
	<clipPath id="SVGID_2_">
		<use xlink:href="#SVGID_1_"  style="overflow:visible;"/>
	</clipPath>
	<path class="st0" d="M926.2,971c0,0-10,66.4-37.2,82.4c-27.2,16.1,128.8,67.2,128.8,67.2s-14.7-143.3-25.6-141.2
		C981.2,981.6,926.2,971,926.2,971"/>
	<path class="st0" d="M842.3,875.9c-4.7,3.8-32.1,23.8-67.6,50.4l34.2,28c25.3-23.9,50.8-43.4,74.6-52.3c14.2,1.9,17.5,0.2,24.7-1.8
		c4.4-1.2,6.3-2.2,10.5-3.7c10.5-3.7,16.2-20-18.4-9.3c22.6-13.3,35.5-22.3,45.4-33c0.1,0.2,0.3,0.3,0.4,0.5
		C997.2,794.2,912.8,764.9,842.3,875.9"/>
	<path class="st1" d="M1142.4,1223.2c0-105.9-82.7-207.1-190.2-160.6H952c-127.7-58.1-192,54.7-192,160.6v352.8h382.5V1223.2z"/>
	<path class="st0" d="M327.7,1028.2c-4.2-39.9-2.8-73.2-6.6-70.9c-9.2,5.7-60.8,0-60.8,0s-3.4,38.4-8.5,76.1c8-3.3,18.6-6.1,31.2-8
		C298,1023.1,313,1024.3,327.7,1028.2"/>
	<path class="st2" d="M207.5,903.2c-3.2,0-8-19.3-16-31.6c-7.3-11.2-16-21.1-11.2-33.3c4.8-12.3,3.2-36.9,41.5-50.9
		c1.6-12.3,9.6-26.3,19.2-31.6c9.6-5.3,46.3-12.3,76.7-1.8c30.3,10.5,70.3,38.6,76.7,47.4c6.4,8.8,11.2,21.1-1.6,31.6
		c-12.8,10.5-17.6,3.5-22.4,17.5c-4.8,14-4.8,31.6-8,42.1c-3.2,10.5-1.6,14-4.8,3.5c-5.5-18,4.8-22.8-12.8-31.6
		c-17.6-8.8-55.9-40.4-86.3-26.3c-30.3,14-17.9,3.8-27.2,21.1c-7.4,13.9-4.8,40.4-12.8,45.6C210.7,910.2,207.5,903.2,207.5,903.2"/>
	<path class="st3" d="M360.8,840c0,0,3.2,91.5,0,103.5c-3.4,12.8-20.8,42.1-35.1,56.2c-14.4,14-54.3-1.8-60.7-7
		c-6.4-5.3-22.2-13.1-28.8-45.6c-3.2-12.3-20.8,3.5-24-14c-7.4-40.5,3.2-43.9,9.6-42.1c6.4,1.8-3.2-47.4,0-54.4
		c3.2-7,14.3-24.7,22.4-26.3c17.6-3.5,51.1,26.3,70.3,28.1C346.4,841.2,346.4,841.8,360.8,840"/>
	<path class="st4" d="M337.2,1061.1h-93.7c-3.7,0-6.7-3-6.7-6.7c0-19.3,15.6-34.9,34.9-34.9h37.2c19.3,0,34.9,15.6,34.9,34.9
		C343.9,1058.1,340.9,1061.1,337.2,1061.1"/>
	<path class="st5" d="M465.5,1213.2c0-94.2-76.2-170.5-170.3-170.5c-94,0-170.3,76.3-170.3,170.5v362.5h340.6V1213.2z"/>
	<path class="st1" d="M869.2,1048.4c0,0-39.9,1.6-73.6,0.8c-54.2-1.2-85.2,35.5-90.5,30.8c61.1-11.6,102.7-106.3,162.8-170.1
		c0,0-31.9-25.7-33.4-34.9c-1.2-7.4-70.4,41.2-151.2,125c-37.8,39.2-74.1,130.4-71.2,152.6c7.7,59.9,234-10.2,234-10.2L869.2,1048.4
		z"/>
	<path class="st0" d="M355.5,1070.1c0,0-6.5,8.4-6.5-35.2c0-9.3-25.2-36.7-4.4-52.3c23.3-17.4,19.7-67.8,26.2-80
		c13.1-24.7,24.7,16,26.2,33.4c0.9,10.5,0,10.2-5.8,24.7c-14,35.1-6.3,45.3-2.9,62.5c1.5,7.3,6.5,46.5,6.5,46.5L355.5,1070.1z"/>
	<path class="st5" d="M218.1,1061.1c10.3-0.8-141.1,8.4-161.4,81.4c-20.2,72.8-80.6,144.1-46.5,226.8
		c34.1,82.7,151.2,152.6,151.2,152.6l14.6-43.8l-87.6-131.4l38.9-136.2L218.1,1061.1z"/>
	<path class="st5" d="M410,1087.3c0,0,92,43,106.6,67.3c14.6,24.3,25.1,159.3,21.9,194.6c-5,55-43.8,126.5-87.6,53.5
		c-44.1-73.5-80.3-136.2-94.9-233.5s-9.7-107-9.7-107H395c3.8,12.9,51.7,182,71.7,217C449.6,1232.9,410,1087.3,410,1087.3"/>
	<path class="st6" d="M124.5,1220l5.8-47L124.5,1220z"/>
	
		<rect x="126.8" y="1172.9" transform="matrix(0.9927 0.1209 -0.1209 0.9927 145.5652 -6.6234)" class="st4" width="1.2" height="47.3"/>
	<path class="st1" d="M1059.5,1066c0,0,86.1,40.3,95.2,50.7c10.8,12.3,41.5,30.7,36.9,201.2c-4.6,170.5,0,258.1,0,258.1h-49.2
		C1142.4,1575.9,1143.2,1136.8,1059.5,1066"/>
	<path class="st7" d="M1095.1,1576c-0.3-3.1-27.4-313.3,0.1-376.2l1.4,0.6c-27.3,62.6-0.2,372.3,0.1,375.4L1095.1,1576z"/>
	<path class="st7" d="M767.8,1161.7l-1.5-0.1c0-0.3,1.9-27.7,23.1-37.5l0.6,1.4C769.7,1135,767.8,1161.4,767.8,1161.7"/>
	<path class="st8" d="M1046.9,682.8c83.4-278.6-128.7-191.7-274.1-155.3c-202.5,50.6-376.8-57.6-373.1-214.2
		c7.5-319,230.2-360.7,555.7-273.7C1190.2,102.4,1158.7,514,1046.9,682.8"/>
	<path class="st7" d="M177.4,210.7c82.4-63.1,312.5-64,389.6,39.2c61.8,82.7,82.9,255.8,4.4,327.1c-24.4,22.1-93.8,82-311.1,26.2
		C50.9,549.4,155.6,754.4,155.6,754.4C42.2,626.4-14.5,357.5,177.4,210.7"/>
	<path class="st4" d="M465,1422.1c-60-66.2-89.4-160.4-103.4-227.8c-15.2-73-16.3-131.1-16.3-131.7l1.5,0c0,0.6,1.1,58.6,16.2,131.4
		c14,67.2,43.3,161.2,103.1,227.1L465,1422.1z"/>
	<path class="st4" d="M463.3,1280.8c-23-56.1-67.9-216.5-68.3-218.1l1.1-0.3c0.4,1.6,42,150.2,65.6,211.3
		c-9.2-42.9-2.8-77.1-2.7-77.5l1.1,0.2c-0.1,0.4-7.1,38.2,4.4,84.1L463.3,1280.8z"/>
	<path class="st3" d="M1035.7,824.2c-0.6,76.1-16.4,195.9-93.1,205.3c-70.3,8.5-91.3-193-58.3-230.8
		C917.2,760.9,1036.3,748.1,1035.7,824.2"/>
	<path class="st9" d="M889.8,821.3c-18.5,4.6-37.1-23.2-27.8-55.6c4.3-15.1,10.7-27.2,17.1-37.2c7.9-12.3,25.3-14,35.4-3.4
		c8.6,8.9,19.7,17.7,30.9,22.1c23.2,9.3,55.6,4.6,69.5,9.3c13.9,4.6,23.2,23.2,32.4,27.8c6.9,3.5,11.3,12.2,13,18.2
		c0.8,2.7,1.9,5.2,3.5,7.5c7.7,11-11.5,35.3-7.3,43.8c4.6,9.3-0.2,23.9-4.6,37.1c-4.6,13.9-27.8,60.2-46.3,55.6
		c-9-2.2-4.6-27.8,4.6-37.1c10.4-10.4,13.9-18.5,9.3-27.8c-2.1-4.1-13.9-9.3-18.5,0c-4.6,9.3-9.3,4.6-9.3-4.6c0-9.3,0-23.2-4.6-27.8
		c0,0-13.9-18.5-27.8-23.2C923.7,814,889.7,821.3,889.8,821.3"/>
	<path class="st9" d="M1549.2,749c-39.5,0-34.5,14.3-50.1,12.8c-48.1-4.6-56.2,46.4-52.1,75.7c5.1,37.1-1.1,70.1-8.7,93.8
		c-9.3,29-6.4,38.3,13.9,59.7c41.6,43.7,233.5,24.5,231.4-35.2C1680.5,870.9,1628.5,749,1549.2,749"/>
	<rect x="1524.3" y="956" class="st0" width="63.5" height="60"/>
	<path class="st3" d="M1606,903.3v-11c21-1.7,10.5-70.9-9.1-41.2c0-24.7-14-79.1-74.7-59.3c-14.4,0-26.2,9.8-32.9,16
		c-16.8,15.8-15.9,40.5-12.6,62c9.1,59.3,24.3,95,45.5,109.9C1550.3,999.4,1607.3,969.7,1606,903.3"/>
	<path class="st10" d="M1372.3,1255.6c6.9-8.1,14.1-17.6,21.3-27.5c-6.8,8.9-13.9,18-20.7,25.9L1372.3,1255.6z"/>
	<path class="st10" d="M1367.4,1274.6c6.6-3.8-4.1-8.5,4.8-19l0.7-1.6C1363.2,1265.5,1373.3,1271.2,1367.4,1274.6"/>
	<path class="st10" d="M1367.4,1252.8c-7.2,8.5-10.9,17.3-15.5,22.3c12.2-10.4,20.6-21.3,26.6-32.5
		C1374.4,1246.1,1370.4,1249.3,1367.4,1252.8"/>
	<path class="st0" d="M1419.2,1242c-4.1,5.6-21.3,26.2-26.7,30.6c-6,11.1-2.8,6.1-14.9,16.5c-1.1,1.2-2.2,2.2-3.5,2.9
		c1.2-1,2.3-1.9,3.5-2.9c4.6-5,8.8-5.8,16-14.3c3-3.5,5.3-10.7,10.6-18.2c15.2-28.1,24.2-55.4,33.1-78.9
		c-14.6-30.8-20.9-111.5-21.3-120.5c-41,24.5-69.5,115-90.6,199.4c-8.5,34-18.1,117.4,6.4,125.8c9.2,3.2,13.5,3.8,36.3-5.3
		c10.7-4.3,22.3-10,25.6-12.8l28.4-126C1421.1,1239.5,1420.1,1240.7,1419.2,1242"/>
	<path class="st11" d="M1717.7,1032.6c-16.1-20-75.4-24.4-82.5,29.3c-3,22.9,1.8,44.7,17.5,62.3c15.3,17,25.1,35.6,31.4,53.9
		l76.3-32.4C1748.2,1096.9,1739.2,1059.3,1717.7,1032.6"/>
	<path class="st12" d="M2223.9,1345c-1.7-0.7-3-1.4-4.2-2.2c-3.9,78.1-10.3,160.1-16.8,233.2h54.4c-1.2-72.5-2.3-153.1-2.9-228.9
		C2243,1347.7,2235.3,1349.8,2223.9,1345"/>
	<path class="st12" d="M2245,1287.9c3.1,0,6-0.1,9.1-0.1c-0.4-115.8,0.9-210.2,6-229.6c-8.7-0.6-17.5-0.3-26.2,0.9
		c-7.6,1-14.6,2.3-20.8,3.8c10.8,47.4,12.2,132.3,8.8,228.2C2228,1287.9,2234.4,1286.8,2245,1287.9"/>
	<path class="st12" d="M2220.4,1329c0,0.5,0,1-0.1,1.4c1-0.5,2.1-0.9,3.4-1.2C2222.5,1329.3,2221.4,1329.2,2220.4,1329"/>
	<path class="st12" d="M2221.6,1300.3c0,0.3,0,0.5,0,0.8c0.6-0.1,1-0.2,1-0.2S2222.1,1300.7,2221.6,1300.3"/>
	<path class="st0" d="M2261.6,1055.1c5.8-1.9,13.7-2.4,22.7-2.1c-1.3-13.5-2-26-2.6-36.4c-4.6,3.9-8.7,6.3-11.4,8.3
		c-7.1,5.3-49.9,20.8-67.9,8.9c-0.8,6.2-1.6,12.7-2.5,19.3c3.1,0.4,5.7,1,7.7,1.9H2261.6z"/>
	<path class="st0" d="M2212.2,1059.1c0.3,1.3,0.6,2.6,0.9,3.9c6.2-1.5,13.2-2.8,20.8-3.8c8.7-1.2,17.5-1.4,26.2-0.9
		c0.4-1.5,0.8-2.5,1.2-3.1c0.1,0,0.2-0.1,0.3-0.1h-53.9C2209.9,1056.1,2211.5,1057.4,2212.2,1059.1"/>
	<path class="st13" d="M2293.1,1055.1v236.6c4.8,0.8,8.5,2,11.4,3.3c-0.2-3-19.2-30.7-7.1-30.7c3.3,0,5.2,0.4,9.5,4.1
		c2.3,2,5.4,6.8,9.4,9.1c13.8,8.2,22.5,27.8,29.3,32.3c7.2,4.8,11.8,3.2,35,10.2l-1.2,2.7c10.5,3,28.3,8.4,47,15.7
		c-4.4-37-8.7-72.5-12.5-104.9c-18.4-39.5-34.7-72.8-34.7-72.8l15.3-83.6c0,0-67.7-22.2-110.1-24c0.1,0.7,0.1,1.4,0.2,2.1H2293.1z"
		/>
	<path class="st13" d="M2438,1434.6L2438,1434.6l-0.5,0.7c-9.3-6.2-17.9-11.8-25.8-17c-25.9-16.9-45.2-29.6-60.5-43.7l-36.4-21.6
		c-8.9,1-14.6-0.9-21.6-2.9v226h162.7C2449.9,1530.8,2443.9,1482.6,2438,1434.6L2438,1434.6L2438,1434.6z"/>
	<path class="st13" d="M2375.1,1389.5c-7.8-6.2-14.4-11.4-19.4-15l-0.4,0.8L2375.1,1389.5z"/>
	<path class="st13" d="M2266.3,1347c-4.5-0.3-8.3-0.2-11.8,0c0.6,75.8,1.7,156.5,2.9,228.9h35.8v-226c-2.1-0.6-4.3-1.2-6.7-1.8
		C2278.9,1347.3,2269.4,1347.2,2266.3,1347"/>
	<path class="st13" d="M2260.1,1058.3c-5.1,19.4-6.4,113.8-6,229.6c6.5,0,13.8,0.3,24.9,2.4c5.5,0.3,10.2,0.8,14.1,1.5v-236.6h-8.5
		c0.2,2.3,0.5,4.7,0.8,7.1C2277,1060.2,2268.6,1058.8,2260.1,1058.3"/>
	<path class="st13" d="M2261.6,1055.1h22.9c-0.1-0.7-0.1-1.4-0.2-2.1C2275.3,1052.7,2267.5,1053.2,2261.6,1055.1"/>
	<path class="st13" d="M2260.1,1058.3c8.4,0.5,16.8,1.9,25.2,3.9c-0.3-2.4-0.5-4.7-0.8-7.1h-22.9c-0.1,0-0.2,0.1-0.3,0.1
		C2260.9,1055.8,2260.5,1056.8,2260.1,1058.3"/>
	<path class="st13" d="M2130.7,1097.9c47.4-11.3,42-14.7,53.3-10.2c0.6,0.2,1,0.5,1.5,0.7v-33.4h14.3c0.1-0.6,0.2-1.3,0.3-1.9
		c-19.7-2.4-58.2,5.2-86.3,12.8c-0.7,2.8-6.5,24.8-14,49.5C2104,1108.3,2112.9,1102.2,2130.7,1097.9"/>
	<path class="st13" d="M2096.8,1156.7c1-9.9-1.5-20.3-0.6-29.7c-8.8,28-18.9,56.4-25.7,62.6c-0.6,0.5-1.1,1.1-1.6,1.7
		c-0.6,10.5-1,21.1-1.4,31.5C2079.8,1200.5,2095.4,1170.2,2096.8,1156.7"/>
	<path class="st13" d="M2185.5,1174.7c-10.8-6-3.9-6.5-12.6-9.4c-4.8-1.6-26.3,5.2-28.5,14.3c-3.5,13.9-1.6,26.9-11.4,38
		c-16.7,18.8-37.3,43-41.4,52.1l1.4,0.8c0,0-5.5,12.6-14.8,30.6c-5.7,12.6-12,25.7-15.5,30.5l-0.5-0.4
		c-5.7,30.4-25.8,142.6-44.1,244.7h167.5V1174.7z"/>
	<path class="st13" d="M2219.7,1342.8c-6.3-4.2-5.7-9.4,0.6-12.3c0-0.5,0-1,0.1-1.4c-5.4-0.6-8.4-2.3-7.3-6.8c1-3.9,4.2-2.5,4.4-5.2
		c0.1-1-3.6-2.2-5-5.2c-3.4-7.2,5.9-10,9-10.7c0-0.3,0-0.5,0-0.8c-2.1-1.5-6.4-5.3-0.2-8.8c0.2-0.1,0.4-0.2,0.6-0.3
		c3.4-95.9,2-180.8-8.8-228.2c-5.7,1.4-10.8,2.9-15.2,4.6c0.6-4.2,1.2-8.3,1.8-12.5h-14.3v33.4c8.2,4.8,1.7,16.3,1.7,16.3
		s11.4,6.5,9.3,16.8c-0.6,2.8,0,5.9,1.9,8c5,5.8,5.1,20.8-2.2,22.6c5.2,6.9,5.2,30.6-7.4,24.3c-1.2-0.6-2.3-1.2-3.3-1.7V1576h17.4
		C2209.4,1502.9,2215.8,1420.8,2219.7,1342.8"/>
	<path class="st13" d="M2207.7,1055.1c-2-0.9-4.7-1.5-7.7-1.9c-0.1,0.6-0.2,1.3-0.3,1.9H2207.7z"/>
	<path class="st13" d="M2213.1,1063c-0.3-1.3-0.6-2.6-0.9-3.9c-0.7-1.7-2.3-3-4.5-4h-8c-0.6,4.1-1.2,8.3-1.8,12.5
		C2202.4,1065.9,2207.4,1064.4,2213.1,1063"/>
	<path class="st13" d="M2464.2,1356.1c-11.7-6.7-25-12.6-37.9-17.7c3.7,31,7.6,63,11.5,95.1c0.2,0.1,0.4,0.3,0.6,0.4l-0.5,0.7
		c29.9,18,62.3,31.2,89.2,25c31.9-7.3,37.7-105.6,27-148.5c-33-132-101.2-234-159.7-234c3,19.5,10.1,79.1,19.4,156.4
		C2436,1281.2,2461.2,1338,2464.2,1356.1"/>
	<path class="st13" d="M2413.8,1233.5c-9.2-77.4-16.4-136.9-19.4-156.4l-15.3,83.6C2379.1,1160.7,2395.4,1194,2413.8,1233.5"/>
	<path class="st13" d="M2375.1,1389.5l44.8,32.1c5.6,3.7,11.6,7.6,17.9,11.8c-3.9-32.1-7.8-64.1-11.5-95.1
		c-18.8-7.3-36.6-12.8-47-15.7l-23.6,51.9C2360.7,1378.2,2367.3,1383.4,2375.1,1389.5"/>
	<path class="st13" d="M2063.5,1323.5c1.6-9.7,2-35.7,2.9-67.5c-7.9-4.1-14.1-7.1-14.1-7.1s0.1-0.2,0.4-0.7l-0.3-0.2
		c0,0-11.1,24.8-17.9,31.6c15.1-30.3,20.8-73.3,34.2-88.4c3.1-58.2,9.6-114.2,26.1-119.7c5.3-1.8,11.7-3.7,18.8-5.6
		c0.1-0.2,0.1-0.3,0.1-0.3c-27.4,3.8-49.8,15-75.7,23.6c-60.7,20.3-135.1,180.6-104.9,314c6,26.4,42.5,31.2,69.7,6.8
		c21.8-19.5,42.7-50.9,58.9-79l-1.9-1.6C2060.9,1328.2,2062.1,1326.1,2063.5,1323.5"/>
	<path class="st13" d="M2068.8,1191.3c0.5-0.6,1.1-1.2,1.6-1.7c6.8-6.2,17-34.6,25.7-62.6c0.4-4,1.4-7.8,3.5-11.4
		c7.5-24.8,13.3-46.8,14-49.5c-7.1,1.9-13.5,3.8-18.8,5.6C2078.4,1077.1,2071.9,1133.1,2068.8,1191.3"/>
	<path class="st13" d="M2089,1269c-6.6-4.4-15.3-9.2-22.5-13c-0.8,31.8-1.3,57.8-2.9,67.5c8.8-16.3,24-52.5,24.2-52.9l3.1,1.4
		c-0.4,1.1-6.2,14.8-12.7,29.1c9.3-18.1,14.8-30.6,14.8-30.6l-1.4-0.8c-0.1,0.1-0.1,0.3-0.2,0.4
		C2090.8,1271.4,2090.1,1269.8,2089,1269"/>
	<path class="st5" d="M2061.9,1331.1l0.2,0.2c0.1-0.3,0.1-0.5,0.1-0.8C2062.1,1330.7,2062,1330.9,2061.9,1331.1"/>
	<path class="st5" d="M2078.1,1301.2c-4.5,8.7-9.9,18.8-15.9,29.3c0,0.3-0.1,0.5-0.1,0.8l0.5,0.4
		C2066.2,1326.8,2072.4,1313.8,2078.1,1301.2"/>
	<path class="st5" d="M2062.6,1328.6c-0.5,0.8-0.9,1.4-1.3,2l1.6-3.3c0.2-1.1,0.4-1.9,0.5-2.6c0.1-0.4,0.1-0.8,0.2-1.2
		c-1.4,2.5-2.6,4.6-3.6,6l1.9,1.6c0.1-0.2,0.2-0.4,0.4-0.6C2062.3,1329.8,2062.5,1329.2,2062.6,1328.6"/>
	<path class="st5" d="M2087.7,1270.7c-0.2,0.4-15.3,36.6-24.2,52.9c-0.1,0.4-0.1,0.8-0.2,1.2c-0.1,0.6-0.3,1.5-0.5,2.6l26.4-55.9
		c0,0-18.4,43.9-26.7,57.3c-0.1,0.6-0.2,1.2-0.3,1.8c6-10.5,11.4-20.5,15.9-29.3c6.5-14.3,12.2-28,12.7-29.1L2087.7,1270.7z"/>
	<path class="st5" d="M2061.3,1330.6c0.4-0.5,0.8-1.2,1.3-2c0.1-0.5,0.2-0.9,0.3-1.3L2061.3,1330.6z"/>
	<path class="st5" d="M2062.8,1327.3c-0.1,0.4-0.2,0.9-0.3,1.3c8.3-13.4,26.7-57.3,26.7-57.3L2062.8,1327.3z"/>
	<path class="st5" d="M2438,1434.6L2438,1434.6L2438,1434.6z"/>
	<path class="st5" d="M2355.1,1375.8c11.6,10.3,25.5,20,42.8,31.4c-8.4-6.3-16.1-12.3-22.9-17.7l-19.7-14.1L2355.1,1375.8z"/>
	<path class="st5" d="M2412.6,1416.9c2.4,1.6,4.8,3.1,7.3,4.8l-44.8-32.1c6.8,5.4,14.5,11.4,22.9,17.7
		C2402.6,1410.3,2407.5,1413.5,2412.6,1416.9"/>
	<path class="st5" d="M2438,1434.6"/>
	<polyline class="st5" points="2438,1434.6 2438,1434.6 2438,1434.6 2438,1434.6 	"/>
	<path class="st5" d="M2411.6,1417.2c-24.3-15.9-42.3-27.7-56.8-40.5l0,0l-3.6-2.1c15.3,14.1,34.6,26.8,60.5,43.7
		c7.9,5.2,16.5,10.8,25.8,17l0.5-0.7c0,0,0,0,0,0C2428.9,1429.1,2420,1423.1,2411.6,1417.2"/>
	<path class="st5" d="M2437.9,1433.5c0,0.4,0.1,0.7,0.1,1.1l0.5-0.7C2438.3,1433.7,2438.1,1433.6,2437.9,1433.5"/>
	<path class="st5" d="M2438,1434.6C2438,1434.6,2438,1434.6,2438,1434.6c0-0.4-0.1-0.7-0.1-1.1c-6.3-4.2-12.3-8.1-17.9-11.8
		L2438,1434.6z"/>
	<path class="st5" d="M2411.6,1417.2c8.4,6,17.3,11.9,26.4,17.4C2428.4,1428.2,2419.6,1422.5,2411.6,1417.2"/>
	<path class="st5" d="M2354.8,1376.7c14.5,12.8,32.5,24.6,56.8,40.5c-4.7-3.3-9.2-6.7-13.6-10c-17.2-11.4-31.2-21.1-42.8-31.4
		L2354.8,1376.7z"/>
	<polyline class="st5" points="2438,1434.6 2438,1434.6 2438,1434.6 2438,1434.6 2438,1434.6 	"/>
	<path class="st5" d="M2412.6,1416.9c-5.2-3.4-10-6.6-14.7-9.6c4.4,3.3,8.9,6.6,13.6,10c8.1,5.3,16.9,11,26.4,17.4c0,0,0,0,0,0
		l-18.1-12.9C2417.4,1420,2415,1418.4,2412.6,1416.9"/>
	<path class="st14" d="M2067.4,1222.7c-7.1,12.8-13.1,22.8-14.7,25.5l13.7,7.6C2066.7,1245.3,2067,1234.2,2067.4,1222.7"/>
	<path class="st14" d="M2184,1087.7c-11.3-4.5-5.9-1.1-53.3,10.2c-17.8,4.2-26.7,10.4-31,17.6c-1.1,3.8-2.3,7.6-3.5,11.4
		c-0.9,9.4,1.6,19.8,0.6,29.7c-1.3,13.5-17,43.9-29.4,66.1c-0.4,11.4-0.7,22.6-1,33.1l25.1,13.9c4.1-9.1,24.7-33.3,41.4-52.1
		c9.8-11.1,8-24.2,11.4-38c2.3-9,23.7-15.9,28.5-14.3c8.7,2.9,1.8,3.3,12.6,9.4v-86.3C2185,1088.2,2184.5,1087.9,2184,1087.7"/>
	<path class="st14" d="M2196.2,1152.1c7.3-1.8,7.2-16.8,2.2-22.6c-1.9-2.2-2.5-5.2-1.9-8c2.1-10.3-9.3-16.8-9.3-16.8
		s6.6-11.5-1.7-16.3v86.3c0.9,0.5,2,1.1,3.3,1.7C2201.4,1182.8,2201.4,1159,2196.2,1152.1"/>
	<path class="st14" d="M2052.7,1248.2c-0.3,0.5-0.4,0.7-0.4,0.7s6.2,3,14.1,7.1c0-0.1,0-0.1,0-0.2L2052.7,1248.2z"/>
	<path class="st14" d="M2096.2,1126.9c1.2-3.8,2.4-7.6,3.5-11.4C2097.6,1119.1,2096.6,1122.9,2096.2,1126.9"/>
	<path class="st14" d="M2066.4,1256c7.2,3.8,15.9,8.6,22.5,13c1.1,0.7,1.9,2.4,2.4,1.2c0.1-0.1,0.1-0.3,0.2-0.4l-25.1-13.9
		C2066.4,1255.9,2066.4,1256,2066.4,1256"/>
	<path class="st14" d="M2254.4,1347.1c-0.2-20.2-0.3-40-0.3-59.2c-3.1,0-6,0.1-9.1,0.1c-10.6-1.2-17-0.1-23.1,3.2
		c-0.1,3-0.2,6.1-0.3,9.1c0.6,0.4,1,0.6,1,0.6s-0.4,0.1-1,0.2c-0.4,9.2-0.8,18.5-1.2,27.9c1,0.1,2.2,0.2,3.4,0.3
		c-1.3,0.3-2.4,0.7-3.4,1.2c-0.2,4.1-0.4,8.2-0.6,12.3c1.2,0.8,2.6,1.5,4.2,2.2C2235.3,1349.8,2243,1347.7,2254.4,1347.1"/>
	<path class="st14" d="M2355.3,1375.4l0.4-0.8c-2.6-1.9-4.7-3.3-6.4-4.1c0.9,0.9,1.8,1.7,2.7,2.6L2355.3,1375.4z"/>
	<path class="st14" d="M2314.7,1352.9l36.4,21.6c-1.6-1.4-3.1-2.9-4.6-4.4l0.6-0.6c5.5-16.5,22.5-49.5,22.5-49.5s3.6,0.9,9.6,2.6
		l1.2-2.7c-23.3-7.1-27.8-5.4-35-10.2c-6.8-4.5-15.5-24.1-29.3-32.3c-4-2.4-7-7.1-9.4-9.1c-4.3-3.7-6.1-4.1-9.5-4.1
		c-12,0,7,27.8,7.1,30.7c-2.8-1.3-6.5-2.5-11.4-3.3v58.3C2300.1,1352,2305.8,1353.9,2314.7,1352.9"/>
	<path class="st14" d="M2254.1,1287.9c0.1,19.2,0.2,39,0.3,59.2c3.5-0.2,7.4-0.3,11.8,0c3.2,0.2,12.6,0.3,20.1,1.2
		c2.4,0.6,4.6,1.2,6.7,1.8v-58.3c-3.9-0.7-8.6-1.2-14.1-1.5C2267.9,1288.2,2260.6,1287.9,2254.1,1287.9"/>
	<path class="st14" d="M2219.7,1342.8c0.2-4.1,0.4-8.2,0.6-12.3C2214,1333.3,2213.4,1338.5,2219.7,1342.8"/>
	<path class="st14" d="M2221.4,1291.5c-6.2,3.5-1.9,7.4,0.2,8.8c0.1-3.1,0.2-6.1,0.3-9.1C2221.7,1291.3,2221.5,1291.4,2221.4,1291.5
		"/>
	<path class="st14" d="M2212.5,1311.9c1.4,3,5.1,4.2,5,5.2c-0.2,2.7-3.4,1.3-4.4,5.2c-1.1,4.5,1.9,6.2,7.3,6.8
		c0.4-9.4,0.8-18.7,1.2-27.9C2218.4,1301.9,2209.1,1304.7,2212.5,1311.9"/>
	<path class="st14" d="M2347.2,1369.6l0.6-0.6c0.5,0.5,1,1,1.5,1.5c1.7,0.9,3.8,2.3,6.4,4.1l23.6-51.9c-6-1.7-9.6-2.6-9.6-2.6
		S2352.7,1353.1,2347.2,1369.6"/>
	<path class="st14" d="M2355.3,1375.4l-3.3-2.4c1,0.9,2.1,1.9,3.1,2.8L2355.3,1375.4z"/>
	<path class="st14" d="M2354.8,1376.7c-2.6-2.3-5.1-4.7-7.6-7.1l-0.6,0.6c1.5,1.5,3,2.9,4.6,4.4L2354.8,1376.7L2354.8,1376.7z"/>
	<path class="st14" d="M2352,1373c-0.9-0.9-1.8-1.7-2.7-2.6c-0.8-0.4-1.5-0.7-2.1-0.9L2352,1373z"/>
	<path class="st14" d="M2349.3,1370.4c-0.5-0.5-1-1-1.5-1.5l-0.6,0.6C2347.8,1369.7,2348.5,1370,2349.3,1370.4"/>
	<path class="st14" d="M2352,1373l-4.8-3.4c2.4,2.4,4.9,4.8,7.6,7.1l0.4-0.8C2354.1,1374.9,2353,1374,2352,1373"/>
	<path class="st9" d="M2213.3,863c22.1-1.8,60.7-33.1,81-29.4c9.2,1.7,22.1,20.2,25.8,27.6c3.7,7.4-7.4,58.9,0,57
		c5.2-1.3,12.7,0.1,13.8,15.7c1.9-1.2,2.8-2.8,2.8-2.8c3.7,0,9.2-20.2,18.4-33.1c8.4-11.7,18.4-22.1,12.9-35
		c-5.5-12.9-3.7-38.6-47.8-53.4c-1.8-12.9-11-27.6-22.1-33.1c-11-5.5-53.4-12.9-88.3-1.8c-35,11-81,40.5-88.3,49.7
		c-7.4,9.2-12.9,22.1,1.8,33.1c14.7,11,20.2,3.7,25.8,18.4c5.5,14.7,5.5,33.1,9.2,44.2c0.1,0.4,0.2,0.7,0.4,1.1
		c0.4-27.9,1.5-56.3,1.5-56.3C2176.5,866.7,2176.6,866.1,2213.3,863"/>
	<path class="st3" d="M2277.8,987.8c2.6-1.4,3.1,10.3,4,28.8c7.9-6.7,16.9-17.9,21.7-39.5c3.7-12.9,23.9,3.7,27.6-14.7
		c2.5-12.6,3.2-21.8,2.8-28.4c-2.1,1.2-5.3,1.9-10.1-1c-9.2-5.5-6.1-33.3-14.7-47.8c-10.6-18.1,3.7-7.4-31.3-22.1
		c-35-14.7-79.1,18.4-99.4,27.6c-20.2,9.2-8.4,14.2-14.7,33.1c-3.6,10.7-2,7.6-5.2-2.6c-0.3,23.4-0.2,46.5,1.5,52.3
		c3.9,13.5,23.9,44.2,40.5,58.9c0.6,0.6,1.3,1.1,2.1,1.5c3.2-25.8,5.2-46.1,5.2-46.1S2267.2,993.8,2277.8,987.8"/>
	<path class="st3" d="M2270.4,1025c2.7-2,6.9-4.4,11.4-8.3c-1-18.5-1.5-30.3-4-28.8c-10.6,6-70.1,0-70.1,0s-2,20.2-5.2,46.1
		C2220.5,1045.8,2263.3,1030.3,2270.4,1025"/>
	<path class="st3" d="M2163.7,923.8c6.3-18.9-5.5-23.9,14.7-33.1c20.2-9.2,64.4-42.3,99.4-27.6c35,14.7,20.6,4,31.3,22.1
		c8.6,14.6,5.5,42.3,14.7,47.8c4.8,2.9,8.1,2.3,10.1,1c-1.1-15.7-8.6-17-13.8-15.7c-7.4,1.8,3.7-49.7,0-57
		c-3.7-7.4-16.5-25.9-25.8-27.6c-20.2-3.7-58.9,27.6-81,29.4c-36.7,3.1-36.8,3.7-53.4,1.8c0,0-1.1,28.4-1.5,56.3
		C2161.7,931.4,2160.1,934.4,2163.7,923.8"/>
	<path class="st11" d="M1705.3,1566.1c-0.6,0-1.2,0-1.8,0c-8.4,3.8-17.2,7.1-26.5,9.9h27.5
		C1706.8,1570.3,1708.2,1566.1,1705.3,1566.1"/>
	<path class="st11" d="M1422.5,1566.4c-1.3-0.3-2.6-1-3.5-1.9l-3.8,0.4c-0.6,3.7-1.3,7.4-1.9,11.1h55.9
		C1453.7,1573.2,1438.1,1570,1422.5,1566.4"/>
	<path class="st11" d="M1441.4,1181.9c0-1.8-0.3-4.3-0.9-7.5C1440,1176.1,1440.5,1178.6,1441.4,1181.9"/>
	<path class="st11" d="M1711.3,1281.9c-4.9-24.4-17.6-59.9-27.2-95.3l64.5-34.6c-5.4-21.2-25.9-94.7-40.5-119.4
		c-17.8-30-120.5-35.2-154.6-27.7c-13.4,2.9-29.8-4.4-45.9-3.2c-96.9,7.3-134.4,107.7-139.7,115.2c0.5,8.6,20.9,12.7,35,44.4
		c0,0.1,0,0.1-0.1,0.2c0.6,1.4,1.3,2.7,1.9,3.9c0.1,0.1,0.1,0.3,0.2,0.4c0,0,0,0,0,0c6.1,11.8,25.9,24,31.2,21.5
		c1.2-0.6,5.4,2.6,5.2-5.3c-0.9-3.4-1.3-5.8-0.9-7.5c0.6,3.2,0.9,5.6,0.9,7.5c3.5,12.9,13.8,39.6,9,89.7c-9,59.6,7.1,171.5-33.3,287
		c-0.8,2.1,0.2,4.4,1.9,5.9l288.3-26.3C1689.7,1485.7,1692.4,1378,1711.3,1281.9"/>
	<path class="st11" d="M1469.1,1576H1677c9.3-2.7,18.2-6,26.5-9.9c-18.4-0.1-15.2-5.1-0.3-19.9c0.9-0.9,3.1-2,5.2-4.4
		c-0.4-1.2-0.8-2.3-1.2-3.5l-288.3,26.3c1,0.9,2.2,1.6,3.5,1.9C1438.1,1570,1453.7,1573.2,1469.1,1576"/>
	<path class="st0" d="M1741.2,1559.5c-0.2-2.9,0.7-6.7,0.9-11.2c0.4-9,2.9-13.3,1.2-26.9l-0.2,0c2.4-33,26.2-173.6,32.3-226
		c2.8-23.5-4.2-95.6-14.9-149.7l-11.8,6.3c0.9,3.6,1.4,5.7,1.3,5.8c-16.4,33.5-29.4,77.4-38.6,124.1c1.4,6.8,2.1,12.7,2.1,17.5
		c-1.3,126.6,6.2,130.2,0,218l0,0c0,0.1,0,0.1,0,0.2c0,0.1,0,0.3,0,0.4c0,0,0,0.1,0.1,0.1c0.1,2.7-0.1,5-0.1,6.3
		c0.1,6.1-0.9,10.4-2.4,13.5l30.8-2.8c0,0-2.1,15.4-5.4,40.9h5.3C1741.6,1570.9,1741.5,1565.4,1741.2,1559.5"/>
	<path class="st0" d="M1711.3,1548.7c1.2,2.7,31.4-8.2,29.1-6.2c-10.8,9.5-23.2,17.3-36.9,23.6c0.6,0,1.2,0,1.8,0
		c2.9,0,1.5,4.2-0.8,9.9h31.8c3.3-25.6,5.4-40.9,5.4-40.9l-30.8,2.8c-0.8,1.6-1.7,2.9-2.5,3.9
		C1709.3,1544.2,1710.3,1546.6,1711.3,1548.7"/>
	<path class="st0" d="M1711.3,1281.9c9.2-46.7,22.2-90.6,38.6-124.1c0.1-0.1-0.4-2.2-1.3-5.8l-64.5,34.6
		C1693.8,1222,1706.4,1257.5,1711.3,1281.9"/>
	<path class="st0" d="M1711.3,1548.7c-1-2.2-2-4.5-2.9-6.9c-2.1,2.4-4.3,3.5-5.2,4.4c-14.9,14.8-18.1,19.8,0.3,19.9
		c13.7-6.3,26.1-14.1,36.9-23.6C1742.7,1540.5,1712.6,1551.4,1711.3,1548.7"/>
	<path class="st0" d="M1511.5,1100c-2.3,3.6-14.5,29.7-9.2,7.3c3.6-15-11.7-12.8-10.7,5.3c0.7,11.5-4.7,32.4-6.4,40.5
		c-1.5,7.5-34.1,51.2-34.1,51.2c-1.6,2.6-11.7,17.1-30.2,35l-27.4,124.9c3.8-3.2,5.4-3.3,13.9-11.7c23.3-23.3,33.3-40.3,50.1-67.2
		c25.6-41.1,56.5-113,56.5-113C1574.8,1110.5,1553.1,1035.5,1511.5,1100"/>
	<path class="st15" d="M1691,423c-3,131.8-58.3,237.2,170,248c126.6,6,256.3-41.2,355.5-43.6c153-3.8,222.5,6.6,180.5,124.6
		c66-104,136-173,136-300c0-215.5-150-274-451-237C1801.3,249.5,1698,118,1691,423"/>
	<path class="st13" d="M1726,558.3c-65.2,48.8-457,3.7-298.6,183.8C1239,608,1218.1,556,1180.4,505.7
		c-86.4-115.5-62.9-279.1,52.6-365.5c115.5-86.4,459.1-62.9,545.5,52.6C1865,308.2,1841.4,471.9,1726,558.3"/>
</g>
</svg>
